<svg xmlns="http://www.w3.org/2000/svg" viewBox="0 0 320 320" width="320" height="320">
  <circle cx="160" cy="160" r="140" fill="#F3F9F6" stroke="#E0E0E0" stroke-width="2"/>
  <!-- Traffic Cone Mascot / Friendly Surveyor -->
  <!-- Base -->
  <ellipse cx="160" cy="245" rx="70" ry="18" fill="#1E8E5A"/>
  <!-- Cone Body -->
  <path d="M120 240 L150 90 Q160 80 170 90 L200 240 Z" fill="#1E8E5A"/>
  <!-- White Reflective Stripes -->
  <path d="M132 185 L188 185 L193 210 L127 210 Z" fill="#FFFFFF"/>
  <path d="M141 140 L179 140 L183 160 L137 160 Z" fill="#FFFFFF"/>
  <!-- Eyes -->
  <circle cx="152" cy="148" r="4.5" fill="#1A1A1A"/>
  <circle cx="168" cy="148" r="4.5" fill="#1A1A1A"/>
  <circle cx="153.5" cy="146.5" r="1.5" fill="#FFFFFF"/>
  <circle cx="169.5" cy="146.5" r="1.5" fill="#FFFFFF"/>
  <!-- Smile -->
  <path d="M155 156 Q160 160 165 156" stroke="#1A1A1A" stroke-width="2" stroke-linecap="round" fill="none"/>
  <!-- Safety Helmet Badge -->
  <circle cx="160" cy="100" r="8" fill="#F9A825"/>
  <!-- Mascot Shadow -->
  <ellipse cx="160" cy="270" rx="90" ry="12" fill="#E0E0E0" opacity="0.6"/>
</svg>
